<?xml version="1.0" encoding="UTF-8" standalone="no" ?>
<!DOCTYPE svg PUBLIC "-//W3C//DTD SVG 1.1//EN" "http://www.w3.org/Graphics/SVG/1.1/DTD/svg11.dtd">
<svg xmlns="http://www.w3.org/2000/svg" xmlns:xlink="http://www.w3.org/1999/xlink" version="1.1" width="328.87" height="332.7172" xml:space="preserve">
<desc>Created with Fabric.js 1.6.0-rc.1</desc>
<defs></defs>
<g style="stroke: none; stroke-width: 1; stroke-dasharray: none; stroke-linecap: butt; stroke-linejoin: miter; stroke-miterlimit: 10; fill: none; fill-rule: nonzero; opacity: 1;" transform="translate(10 10) scale(0.67 0.61)" >
  <path d="M 370.898 143.68 c -0.204 -0.108 -0.413 -0.212 -0.617 -0.32 c 0.009 -0.231 0.023 -0.464 0.031 -0.694 c 1.709 -48.474 -13.321 -84.39 -42.321 -101.133 c -29.001 -16.744 -67.62 -11.802 -108.745 13.916 c -0.196 0.122 -0.39 0.251 -0.586 0.375 c -0.195 -0.123 -0.39 -0.252 -0.586 -0.375 C 176.949 29.732 138.33 24.79 109.329 41.533 c -29 16.743 -44.03 52.66 -42.321 101.133 c 0.008 0.23 0.023 0.464 0.031 0.694 c -0.204 0.108 -0.413 0.212 -0.617 0.32 C 23.59 166.437 0 197.411 0 230.898 s 23.59 64.461 66.424 87.218 c 0.204 0.108 0.413 0.212 0.617 0.32 c -0.009 0.231 -0.023 0.464 -0.031 0.694 c -1.709 48.474 13.321 84.391 42.321 101.134 c 11.29 6.518 24.031 9.75 37.816 9.749 c 21.626 -0.001 45.813 -7.958 70.929 -23.665 c 0.196 -0.122 0.39 -0.251 0.586 -0.375 c 0.195 0.123 0.39 0.252 0.586 0.375 c 25.118 15.708 49.3 23.665 70.928 23.665 c 13.783 0 26.529 -3.232 37.816 -9.749 c 29 -16.743 44.031 -52.66 42.321 -101.134 c -0.008 -0.23 -0.023 -0.464 -0.031 -0.694 c 0.204 -0.108 0.413 -0.212 0.617 -0.32 c 42.834 -22.756 66.424 -53.731 66.424 -87.218 S 413.732 166.437 370.898 143.68 z M 306.005 281.326 c -9.593 16.616 -20.186 32.157 -31.485 46.323 c -17.917 2.702 -36.673 4.105 -55.859 4.105 s -37.942 -1.403 -55.859 -4.105 c -11.299 -14.166 -21.892 -29.707 -31.485 -46.323 s -17.756 -33.561 -24.374 -50.428 c 6.619 -16.868 14.781 -33.812 24.374 -50.428 s 20.187 -32.157 31.485 -46.323 c 17.917 -2.702 36.672 -4.105 55.859 -4.105 s 37.942 1.404 55.859 4.105 c 11.299 14.166 21.892 29.707 31.485 46.323 s 17.755 33.56 24.374 50.428 C 323.761 247.766 315.599 264.71 306.005 281.326 z M 340.033 259.148 c 4.692 16.156 7.854 32.022 9.37 47.233 c -13.931 6.292 -29.253 11.488 -45.59 15.502 c 6.856 -9.736 13.385 -19.943 19.513 -30.558 S 335.029 269.954 340.033 259.148 z M 218.661 381.865 c -12.415 -8.918 -24.575 -19.59 -36.22 -31.731 c 11.859 1.07 23.964 1.62 36.22 1.62 s 24.361 -0.55 36.22 -1.62 C 243.236 362.275 231.076 372.947 218.661 381.865 z M 133.51 321.884 c -16.337 -4.015 -31.659 -9.209 -45.59 -15.502 c 1.516 -15.211 4.678 -31.078 9.37 -47.233 c 5.003 10.806 10.579 21.564 16.707 32.178 C 120.125 301.94 126.654 312.148 133.51 321.884 z M 113.997 170.47 c -6.128 10.614 -11.704 21.372 -16.707 32.178 c -4.692 -16.156 -7.854 -32.023 -9.37 -47.233 c 13.931 -6.292 29.253 -11.487 45.59 -15.502 C 126.654 149.648 120.125 159.856 113.997 170.47 z M 218.661 79.931 c 12.415 8.918 24.575 19.59 36.22 31.731 c -11.86 -1.07 -23.964 -1.62 -36.22 -1.62 s -24.36 0.55 -36.22 1.62 C 194.087 99.521 206.247 88.85 218.661 79.931 z M 323.326 170.47 c -6.128 -10.614 -12.657 -20.822 -19.513 -30.558 c 16.337 4.015 31.659 9.209 45.59 15.502 c -1.516 15.211 -4.678 31.078 -9.37 47.233 C 335.029 191.842 329.454 181.084 323.326 170.47 z M 290.073 51.786 c 10.331 0 19.734 2.341 27.918 7.067 c 20.821 12.021 32.21 38.575 32.447 75.224 c -19.76 -8.177 -41.788 -14.386 -65.229 -18.444 c -15.232 -18.268 -31.62 -34.238 -48.578 -47.261 C 255.961 57.38 274.127 51.786 290.073 51.786 z M 119.331 58.853 c 8.186 -4.726 17.585 -7.067 27.918 -7.067 c 15.946 0 34.114 5.595 53.442 16.586 c -16.958 13.023 -33.347 28.993 -48.578 47.261 c -23.44 4.058 -45.469 10.267 -65.229 18.444 C 87.122 97.428 98.51 70.874 119.331 58.853 z M 20 230.898 c 0 -24.042 17.303 -47.182 48.922 -65.711 c 2.799 21.201 8.436 43.383 16.642 65.711 c -8.206 22.329 -13.843 44.51 -16.642 65.711 C 37.303 278.08 20 254.94 20 230.898 z M 119.331 402.944 c -20.821 -12.021 -32.209 -38.575 -32.446 -75.224 c 19.76 8.177 41.788 14.386 65.229 18.444 c 15.234 18.271 31.625 34.243 48.587 47.268 C 168.842 411.55 140.15 414.965 119.331 402.944 z M 317.992 402.944 c -20.821 12.021 -49.512 8.607 -81.369 -9.512 c 16.961 -13.024 33.353 -28.997 48.587 -47.268 c 23.44 -4.058 45.469 -10.267 65.229 -18.444 C 350.201 364.368 338.813 390.923 317.992 402.944 z M 368.4 296.609 c -2.799 -21.201 -8.436 -43.382 -16.642 -65.711 c 8.206 -22.329 13.843 -44.51 16.642 -65.712 c 31.619 18.53 48.922 41.669 48.922 65.711 S 400.02 278.08 368.4 296.609 z" style="stroke: none; stroke-width: 1; stroke-dasharray: none; stroke-linecap: butt; stroke-linejoin: miter; stroke-miterlimit: 10; fill: #3d3b3d; fill-rule: nonzero; opacity: 1;" transform=" matrix(1 0 0 1 0 0) " stroke-linecap="round" />
  <circle cx="427.318" cy="230.898" r="32.678" style="stroke: none; stroke-width: 1; stroke-dasharray: none; stroke-linecap: butt; stroke-linejoin: miter; stroke-miterlimit: 10; fill: #ABCB57; fill-rule: nonzero; opacity: 1;" transform="  matrix(1 0 0 1 0 0) "/>
  <circle cx="115.368" cy="409.808" r="32.678" style="stroke: none; stroke-width: 1; stroke-dasharray: none; stroke-linecap: butt; stroke-linejoin: miter; stroke-miterlimit: 10; fill: #E5C400; fill-rule: nonzero; opacity: 1;" transform="  matrix(1 0 0 1 0 0) "/>
  <circle cx="114.328" cy="50.188" r="32.678" style="stroke: none; stroke-width: 1; stroke-dasharray: none; stroke-linecap: butt; stroke-linejoin: miter; stroke-miterlimit: 10; fill: #C8523B; fill-rule: nonzero; opacity: 1;" transform="  matrix(1 0 0 1 0 0) "/>
  <circle cx="217.998" cy="230.998" r="32.678" style="stroke: none; stroke-width: 1; stroke-dasharray: none; stroke-linecap: butt; stroke-linejoin: miter; stroke-miterlimit: 10; fill: #808083; fill-rule: nonzero; opacity: 0;" transform="  matrix(1 0 0 1 0 0) "/>
</g>
  <g transform="translate(87.16 209.88)">
   <text font-family="ADAMCG PRO" font-size="40" font-weight="normal" style="stroke: none; stroke-width: 1; stroke-dasharray: none; stroke-linecap: butt; stroke-linejoin: miter; stroke-miterlimit: 10; fill: #000000; fill-rule: nonzero; opacity: 1;" ><tspan x="0" y="8.98" fill="#000000"></tspan></text>
 </g>
  <g transform="translate(162.64 300.86) scale(1.14 0.85)">
   <text font-family="Amerika Sans" font-size="40" font-weight="normal" style="stroke: none; stroke-width: 1; stroke-dasharray: none; stroke-linecap: butt; stroke-linejoin: miter; stroke-miterlimit: 10; fill: #dba47b; fill-rule: nonzero; opacity: 1;" ><tspan x="-114.1" y="8.98" style="stroke: none; stroke-width: 0; stroke-dasharray: none; stroke-linecap: butt; stroke-linejoin: miter; stroke-miterlimit: 4; fill: #dba47b; fill-rule: ; opacity: 1;">G</tspan><tspan x="-86.22" y="8.98" style="stroke: none; stroke-width: 0; stroke-dasharray: none; stroke-linecap: butt; stroke-linejoin: miter; stroke-miterlimit: 4; fill: #dba47b; fill-rule: ; opacity: 1;">e</tspan><tspan x="-63.5" y="8.98" style="stroke: none; stroke-width: 0; stroke-dasharray: none; stroke-linecap: butt; stroke-linejoin: miter; stroke-miterlimit: 4; fill: #dba47b; fill-rule: ; opacity: 1;">o</tspan><tspan x="-39.7" y="8.98" style="stroke: none; stroke-width: 0; stroke-dasharray: none; stroke-linecap: butt; stroke-linejoin: miter; stroke-miterlimit: 4; fill: #dba47b; fill-rule: ; opacity: 1;">c</tspan><tspan x="-18.1" y="8.98" style="stroke: none; stroke-width: 0; stroke-dasharray: none; stroke-linecap: butt; stroke-linejoin: miter; stroke-miterlimit: 4; fill: #dba47b; fill-rule: ; opacity: 1;">a</tspan><tspan x="5.74" y="8.98" style="stroke: none; stroke-width: 0; stroke-dasharray: none; stroke-linecap: butt; stroke-linejoin: miter; stroke-miterlimit: 4; fill: #dba47b; fill-rule: ; opacity: 1;">d</tspan><tspan x="29.58" y="8.98" style="stroke: none; stroke-width: 0; stroke-dasharray: none; stroke-linecap: butt; stroke-linejoin: miter; stroke-miterlimit: 4; fill: #dba47b; fill-rule: ; opacity: 1;">e</tspan><tspan x="52.3" y="8.98" style="stroke: none; stroke-width: 0; stroke-dasharray: none; stroke-linecap: butt; stroke-linejoin: miter; stroke-miterlimit: 4; fill: #dba47b; fill-rule: ; opacity: 1;">m</tspan><tspan x="90.82" y="8.98" style="stroke: none; stroke-width: 0; stroke-dasharray: none; stroke-linecap: butt; stroke-linejoin: miter; stroke-miterlimit: 4; fill: #dba47b; fill-rule: ; opacity: 1;">y</tspan></text>
 </g>
  <g transform="translate(144.94 261.72) scale(0.8 0.8)">
   <text font-family="ADAMCG PRO" font-size="40" font-weight="normal" style="stroke: none; stroke-width: 1; stroke-dasharray: none; stroke-linecap: butt; stroke-linejoin: miter; stroke-miterlimit: 10; fill: #000000; fill-rule: nonzero; opacity: 1;" ><tspan x="0" y="8.98" fill="#000000"></tspan></text>
 </g>
<g style="stroke: none; stroke-width: 1; stroke-dasharray: none; stroke-linecap: butt; stroke-linejoin: miter; stroke-miterlimit: 10; fill: none; fill-rule: nonzero; opacity: 1;" transform="translate(106 119) scale(0.62 0.41)" >
  <path d="M 159.785 22.946 L 78.016 0 L 0 47.142 l 48.812 15.02 l -4.009 -18.178 l 0.113 -0.025 c -0.007 -0.019 -0.016 -0.039 -0.02 -0.059 c -1.461 -6.547 14.891 -15.766 36.521 -20.592 c 21.63 -4.831 40.349 -3.435 41.81 3.11 c 0.004 0.022 0.006 0.043 0.008 0.063 l 0.111 -0.027 l 3.063 15.684 L 159.785 22.946 z" style="stroke: none; stroke-width: 1; stroke-dasharray: none; stroke-linecap: butt; stroke-linejoin: miter; stroke-miterlimit: 10; fill: #525657; fill-rule: nonzero; opacity: 1;" transform=" matrix(1 0 0 1 0 0) " stroke-linecap="round" />
  <path d="M 147.445 68.177 c -4.105 0.068 -7.332 6.048 -7.207 13.355 c 0.027 1.62 0.219 3.17 0.543 4.6 l 2.949 -0.051 l 0.658 -4.793 l 0.615 4.774 l 4.512 -0.079 l 0.613 -5.639 l 1.055 5.61 l 3.533 -0.06 c 0.275 -1.44 0.414 -2.996 0.385 -4.615 C 154.976 73.972 151.55 68.106 147.445 68.177 z" style="stroke: none; stroke-width: 1; stroke-dasharray: none; stroke-linecap: butt; stroke-linejoin: miter; stroke-miterlimit: 10; fill: #A5720C; fill-rule: nonzero; opacity: 1;" transform=" matrix(1 0 0 1 0 0) " stroke-linecap="round" />
  <path d="M 88.949 50.029 c -17.752 3.78 -32.967 14.022 -33.606 14.457 l -0.699 0.475 L 54.54 65.8 c -0.063 0.499 -1.487 12.286 1.028 18.284 c 2.077 4.958 1.289 9.485 -0.08 10.847 c -0.972 0.968 -3.285 0.616 -4.019 0.417 L 47.982 94.4 l 1.237 3.39 c 0.111 0.301 2.77 7.393 8.231 8.764 c 2.497 0.626 4.329 0.463 5.657 0.095 c 0.03 0.279 0.058 0.568 0.058 0.909 c 0 1.09 -0.19 2.493 -0.81 4.171 c -1.521 4.119 -5.335 4.984 -5.497 5.02 l -4.317 0.93 l 3.66 2.452 l 44.582 29.716 l 6.272 -23.589 c 0 0 -0.85 -3.929 -1.412 -6.534 c 3.412 0.452 9.07 0.616 12.691 -2.389 c 6.482 -5.373 7.844 -31.85 7.857 -32.117 c 0.037 -0.79 0.055 -1.566 0.055 -2.324 c 0 -6.257 -1.184 -11.275 -1.535 -12.623 c 0.055 -0.575 0.422 -4.521 0.422 -4.521 l -2.182 -14.888 l -1.148 -0.337 C 121.201 50.348 106.806 46.223 88.949 50.029 z M 89.727 53.681 c 14.154 -3.016 26.248 -0.711 29.886 0.141 c 0.293 2 1.705 11.639 1.762 12.027 c -0.037 0.404 -0.443 4.756 -0.443 4.756 l 0.096 0.337 c 0.016 0.058 1.486 5.326 1.486 11.985 c 0 0.689 -0.016 1.394 -0.051 2.108 c -0.492 10.098 -2.902 26.433 -6.512 29.425 c -3.215 2.668 -9.938 1.711 -12.258 1.115 l -2.927 -0.75 c 0 0 2.279 10.547 2.451 11.34 c -0.193 0.73 -3.693 13.889 -4.701 17.68 c -3.633 -2.422 -32.766 -21.84 -37.417 -24.941 c 1.721 -1.084 3.656 -2.891 4.761 -5.883 c 0.786 -2.13 1.044 -3.968 1.044 -5.464 c 0 -2.6 -0.779 -4.162 -0.914 -4.415 l -1.084 -2.016 l -1.821 1.524 c -0.056 0.046 -1.388 1.117 -4.725 0.281 c -1.746 -0.438 -3.195 -2.085 -4.212 -3.672 c 1.354 -0.118 2.826 -0.54 3.976 -1.683 c 1.453 -1.447 2.446 -4.176 2.446 -7.503 c 0 -2.271 -0.462 -4.822 -1.557 -7.434 c -0.917 -2.185 -1.192 -5.663 -1.192 -8.942 c 0 -2.578 0.169 -4.98 0.335 -6.589 C 61.34 65.07 74.8 56.859 89.727 53.681 z" style="stroke: none; stroke-width: 1; stroke-dasharray: none; stroke-linecap: butt; stroke-linejoin: miter; stroke-miterlimit: 10; fill: #525657; fill-rule: nonzero; opacity: 1;" transform=" matrix(1 0 0 1 0 0) " stroke-linecap="round" />
  <polygon points="108.99,121.22 129.11,127.51 105.19,168.62 24.71,129.01 49.13,120.28 102.63,154.48 110.17,127.26 " style="stroke: none; stroke-width: 1; stroke-dasharray: none; stroke-linecap: butt; stroke-linejoin: miter; stroke-miterlimit: 10; fill: #525657; fill-rule: nonzero; opacity: 1;" transform="  matrix(1 0 0 1 0 0) "/>
  <path d="M 52.309 63.517 l 0.15 -0.033 c 0.375 0.89 1.172 1.654 2.314 2.29 c 0.121 -1.595 0.248 -2.619 0.248 -2.619 s 16.03 -10.891 34.415 -14.809 c 18.383 -3.913 33.362 0.487 33.362 0.487 l 0.252 1.719 c 0.775 -1.07 1.18 -2.105 1.139 -3.076 l 0.148 -0.034 l -4.225 -18.917 l -0.102 0.022 c -0.002 -0.019 -0.002 -0.037 -0.006 -0.056 c -1.281 -5.741 -18.402 -6.807 -38.236 -2.379 c -19.836 4.428 -34.879 12.67 -33.599 18.414 c 0.006 0.018 0.015 0.034 0.019 0.05 L 48.088 44.6 L 52.309 63.517 z" style="stroke: none; stroke-width: 1; stroke-dasharray: none; stroke-linecap: butt; stroke-linejoin: miter; stroke-miterlimit: 10; fill: #525657; fill-rule: nonzero; opacity: 1;" transform=" matrix(1 0 0 1 0 0) " stroke-linecap="round" />
  <path d="M 147.445 68.177 c -4.105 0.068 -7.332 6.048 -7.207 13.355 c 0.027 1.62 0.219 3.17 0.543 4.6 l 2.949 -0.051 l 0.658 -4.793 l 0.615 4.774 l 4.512 -0.079 l 0.613 -5.639 l 1.055 5.61 l 3.533 -0.06 c 0.275 -1.44 0.414 -2.996 0.385 -4.615 C 154.976 73.972 151.55 68.106 147.445 68.177 z" style="stroke: none; stroke-width: 1; stroke-dasharray: none; stroke-linecap: butt; stroke-linejoin: miter; stroke-miterlimit: 10; fill: #A5720C; fill-rule: nonzero; opacity: 1;" transform=" matrix(1 0 0 1 0 0) " stroke-linecap="round" />
  <polygon points="148.76,66.63 148.15,32.32 145.56,33.19 146.09,66.63 " style="stroke: none; stroke-width: 1; stroke-dasharray: none; stroke-linecap: butt; stroke-linejoin: miter; stroke-miterlimit: 10; fill: #525657; fill-rule: nonzero; opacity: 1;" transform="  matrix(1 0 0 1 0 0) "/>
</g>
</svg>